<svg width="215" height="51" viewBox="0 0 215 51" fill="none" xmlns="http://www.w3.org/2000/svg">
<path d="M19.7148 39.3275L22.0098 37.0326C22.1785 36.8639 22.1786 36.5905 22.0099 36.4218L20.7363 35.1482C20.21 34.6219 20.0784 33.964 20.7363 33.3061L29.9469 24.0956C30.4733 23.5693 30.9996 23.5693 31.5259 24.0956L40.9996 33.5692L41.0012 33.5707C41.5156 34.0766 41.5255 34.6224 40.9997 35.1482L31.7891 44.3587L31.789 44.3588C31.1045 45.0438 30.7479 45.0904 29.9469 44.3587L28.0155 42.4273C27.8468 42.2586 27.5733 42.2586 27.4046 42.4273L25.1137 44.7182C24.9478 44.8841 24.9436 45.1508 25.1062 45.32C25.847 46.0901 27.8128 48.1196 28.7627 48.964C29.9469 50.0166 31.3943 50.4113 32.9733 48.964C34.5494 47.5193 44.909 37.029 44.947 36.9904L44.9489 36.9885C46.8096 35.0596 46.8703 34.0539 45.3483 32.3921C45.3441 32.3875 45.3448 32.388 45.3405 32.3836L33.1049 20.1483C31.5281 18.5714 30.3508 18.5748 28.6382 20.1418C28.6336 20.146 28.6341 20.1453 28.6297 20.1497L28.6267 20.1527C28.3766 20.4028 17.5629 31.2161 16.2625 32.5166C14.947 33.8324 14.9468 35.0166 16.2625 36.464C17.2524 37.5529 18.5402 38.7907 19.1174 39.3371C19.2862 39.4968 19.5505 39.4918 19.7148 39.3275Z" fill="#FA4B1B" stroke="#FA4B1B" stroke-width="0.288001"/>
<path d="M27.7081 29.2825L25.4132 31.5774C25.2445 31.7461 25.2444 32.0196 25.4131 32.1883L26.6867 33.4618C27.213 33.9882 27.3446 34.6461 26.6867 35.3039L17.476 44.5144C16.9497 45.0408 16.4234 45.0408 15.8971 44.5144L6.42334 35.0409L6.42179 35.0394C5.90734 34.5334 5.89743 33.9877 6.42325 33.4618L15.6339 24.2514L15.634 24.2513C16.3185 23.5663 16.675 23.5197 17.476 24.2514L19.4074 26.1827C19.5761 26.3514 19.8497 26.3514 20.0184 26.1827L22.3092 23.8919C22.4752 23.726 22.4794 23.4593 22.3167 23.2901C21.5759 22.52 19.6102 20.4904 18.6603 19.6461C17.476 18.5935 16.0287 18.1987 14.4497 19.6461C12.8736 21.0908 2.51402 31.5811 2.47594 31.6196L2.47406 31.6216C0.61342 33.5505 0.552671 34.5562 2.07468 36.218C2.07886 36.2226 2.07814 36.222 2.08252 36.2264L14.3181 48.4618C15.8949 50.0386 17.0721 50.0353 18.7848 48.4683C18.7894 48.464 18.7888 48.4648 18.7932 48.4604L18.7963 48.4574C19.0464 48.2073 29.8601 37.3939 31.1604 36.0934C32.476 34.7777 32.4761 33.5935 31.1604 32.1461C30.1706 31.0572 28.8828 29.8194 28.3056 29.273C28.1368 29.1133 27.8724 29.1182 27.7081 29.2825Z" fill="#1429EF" stroke="#1429EF" stroke-width="0.288001"/>
<path d="M210.83 23.675C210.603 13.1372 202.241 4.48206 191.722 3.88795C191.326 3.8656 190.994 4.17795 190.989 4.57414L190.961 6.68048C190.955 7.05845 191.251 7.3728 191.628 7.39575C200.255 7.9244 207.094 15.0043 207.321 23.6462C207.331 24.0241 207.635 24.3303 208.013 24.3384L210.119 24.3835C210.515 24.3917 210.838 24.0712 210.83 23.675ZM203.858 23.5932C203.563 16.8796 198.252 11.3865 191.56 10.8586C191.159 10.8269 190.82 11.1413 190.816 11.543L190.793 13.6563C190.789 14.0244 191.069 14.34 191.436 14.3733C196.263 14.809 200.075 18.7658 200.341 23.5939C200.361 23.9621 200.666 24.2537 201.035 24.2623L203.148 24.3131C203.55 24.3232 203.876 23.9944 203.858 23.5932Z" fill="#FA4B1B"/>
<path d="M185.312 49.5C184.603 49.5 184.066 48.8603 184.188 48.1622L189.081 20.3057C189.177 19.7603 189.651 19.3625 190.205 19.3625H193.681C194.391 19.3625 194.928 20.0033 194.804 20.7018L189.872 48.5584C189.776 49.1031 189.303 49.5 188.749 49.5H185.312Z" fill="white"/>
<path d="M176.284 49.5C175.575 49.5 175.038 48.8603 175.16 48.1622L180.054 20.3057C180.149 19.7603 180.623 19.3625 181.177 19.3625H184.653C185.363 19.3625 185.9 20.0033 185.776 20.7018L180.844 48.5584C180.748 49.1031 180.275 49.5 179.721 49.5H176.284Z" fill="white"/>
<path d="M163.463 50C161.24 50 159.364 49.6943 157.836 49.0829C156.335 48.4716 155.196 47.5406 154.417 46.2901C153.667 45.0118 153.292 43.4 153.292 41.4548C153.292 40.7045 153.32 39.968 153.375 39.2455C153.459 38.523 153.57 37.8144 153.709 37.1196C154.098 35.1466 154.779 33.4098 155.751 31.9091C156.724 30.4085 158.016 29.2275 159.628 28.366C161.24 27.5045 163.213 27.0738 165.547 27.0738C167.604 27.0738 169.326 27.3656 170.716 27.9492C172.133 28.5327 173.189 29.422 173.884 30.6169C174.606 31.8119 174.968 33.3403 174.968 35.2022C174.968 35.7858 174.926 36.4805 174.843 37.2864C174.787 37.8106 174.699 38.3663 174.58 38.9536C174.475 39.4695 174.013 39.8291 173.487 39.8291H160.095C159.571 39.8291 159.138 40.2303 159.044 40.7462V40.7462C159.017 41.024 159.003 41.288 159.003 41.5381C159.003 42.4552 159.156 43.2333 159.461 43.8725C159.767 44.4838 160.239 44.9423 160.878 45.248C161.545 45.5259 162.379 45.6649 163.38 45.6649C164.074 45.6649 164.7 45.5815 165.255 45.4148C165.811 45.248 166.297 45.0118 166.714 44.7061C167.159 44.3727 167.52 43.9697 167.798 43.4973C167.943 43.2593 168.064 43.0024 168.159 42.7266C168.346 42.1829 168.813 41.7466 169.388 41.7466H172.713C173.415 41.7466 173.956 42.377 173.77 43.0536C173.534 43.9084 173.211 44.6816 172.8 45.3731C172.217 46.4013 171.452 47.2627 170.508 47.9575C169.59 48.6244 168.534 49.1385 167.34 49.4998C166.145 49.8333 164.852 50 163.463 50ZM160.415 34.7311C160.091 35.4215 160.644 36.1609 161.407 36.1609H168.375C168.793 36.1609 169.174 35.87 169.174 35.4523V35.4523C169.201 35.2022 169.215 34.9938 169.215 34.827C169.215 34.0211 169.076 33.3681 168.798 32.8679C168.521 32.3677 168.104 31.9925 167.548 31.7424C167.02 31.4923 166.395 31.3673 165.672 31.3673C164.644 31.3673 163.741 31.5618 162.963 31.9508C162.212 32.3121 161.587 32.854 161.087 33.5765C160.839 33.9205 160.615 34.3053 160.415 34.7311Z" fill="white"/>
<path d="M139.005 49.9999C137.282 49.9999 135.67 49.861 134.17 49.5831C132.697 49.3052 131.405 48.8745 130.293 48.2909C129.182 47.7073 128.306 46.9431 127.667 45.9983C127.056 45.0534 126.75 43.9279 126.75 42.6219C126.75 42.2328 126.778 41.816 126.833 41.3713C126.853 41.2691 126.872 41.1698 126.891 41.0734C126.993 40.5602 127.451 40.2042 127.974 40.2042H132.525C132.89 40.2042 133.158 40.555 133.086 40.9128V40.9128C133.03 41.1629 133.003 41.3991 133.003 41.6214C133.003 42.344 133.225 42.9553 133.67 43.4555C134.114 43.9557 134.753 44.3309 135.587 44.581C136.421 44.8311 137.407 44.9562 138.547 44.9562C139.63 44.9562 140.575 44.8728 141.381 44.7061C142.187 44.5393 142.868 44.3031 143.424 43.9974C143.98 43.6917 144.396 43.3166 144.674 42.872C144.98 42.4273 145.133 41.9132 145.133 41.3296C145.133 40.7461 144.938 40.2459 144.549 39.829C144.16 39.4122 143.646 39.0509 143.007 38.7452C142.368 38.4396 141.645 38.1756 140.839 37.9532C140.033 37.7031 139.186 37.4669 138.297 37.2446C137.268 36.9389 136.24 36.6055 135.212 36.2442C134.184 35.8552 133.239 35.3827 132.377 34.8269C131.544 34.2434 130.877 33.5347 130.377 32.7011C129.876 31.8396 129.626 30.7975 129.626 29.5748C129.626 27.9908 129.96 26.6291 130.627 25.4897C131.294 24.3226 132.197 23.3638 133.336 22.6135C134.476 21.8632 135.782 21.3074 137.254 20.9462C138.755 20.5849 140.297 20.4043 141.881 20.4043C143.493 20.4043 144.966 20.5432 146.3 20.8211C147.662 21.0712 148.843 21.4742 149.843 22.03C150.871 22.5857 151.663 23.3083 152.219 24.1975C152.775 25.059 153.053 26.0872 153.053 27.2821C153.053 27.5322 153.039 27.8101 153.011 28.1158C153.004 28.1938 152.995 28.2781 152.984 28.3688C152.919 28.9224 152.436 29.3247 151.878 29.3247H147.354C147.057 29.3247 146.872 29.0256 146.883 28.729V28.729C146.884 28.6998 146.887 28.685 146.892 28.6563C146.914 28.5373 146.925 28.4405 146.925 28.3659C146.925 27.4489 146.508 26.7125 145.675 26.1567C144.841 25.6009 143.66 25.323 142.132 25.323C140.909 25.323 139.839 25.4619 138.922 25.7398C138.033 25.9899 137.338 26.3512 136.838 26.8236C136.365 27.296 136.129 27.8657 136.129 28.5327C136.129 29.0051 136.268 29.4219 136.546 29.7832C136.824 30.1167 137.213 30.4084 137.713 30.6585C138.241 30.9086 138.838 31.1449 139.505 31.3672C140.2 31.5895 140.937 31.7979 141.715 31.9924C142.798 32.2981 143.924 32.6455 145.091 33.0345C146.258 33.3958 147.342 33.8821 148.342 34.4935C149.343 35.077 150.149 35.8274 150.76 36.7444C151.372 37.6337 151.677 38.7313 151.677 40.0374C151.677 41.816 151.316 43.3444 150.593 44.6227C149.899 45.8732 148.94 46.9014 147.717 47.7073C146.522 48.4854 145.174 49.069 143.674 49.458C142.173 49.8193 140.617 49.9999 139.005 49.9999Z" fill="white"/>
<path d="M115.069 50C112.929 50 111.123 49.6943 109.65 49.0829C108.205 48.4716 107.107 47.5267 106.357 46.2484C105.635 44.9701 105.273 43.3583 105.273 41.4131C105.273 40.6628 105.315 39.8986 105.398 39.1205C105.482 38.3424 105.607 37.5921 105.774 36.8695C106.079 35.4523 106.552 34.1462 107.191 32.9512C107.83 31.7563 108.622 30.7142 109.567 29.8249C110.539 28.9357 111.679 28.2548 112.985 27.7824C114.291 27.31 115.764 27.0738 117.403 27.0738C119.349 27.0738 121.016 27.3378 122.406 27.8658C123.795 28.3938 124.865 29.1858 125.615 30.2418C126.393 31.27 126.782 32.5344 126.782 34.035C126.782 34.3407 126.769 34.6603 126.741 34.9938V34.9938C126.692 35.5277 126.226 35.9108 125.69 35.9108H121.376C121.105 35.9108 120.902 35.6685 120.905 35.3981V35.3981C120.905 35.3771 120.906 35.3585 120.909 35.3376C120.934 35.155 120.947 34.9848 120.947 34.827C120.947 34.1323 120.822 33.5487 120.571 33.0763C120.321 32.5761 119.932 32.187 119.404 31.9091C118.876 31.6313 118.209 31.4923 117.403 31.4923C116.264 31.4923 115.305 31.7563 114.527 32.2843C113.749 32.8123 113.124 33.5626 112.651 34.5352C112.179 35.4801 111.818 36.5916 111.568 37.87C111.457 38.4535 111.373 38.9537 111.318 39.3706C111.262 39.7874 111.22 40.1487 111.193 40.4544C111.165 40.7323 111.151 40.9963 111.151 41.2464C111.151 42.1912 111.29 42.9832 111.568 43.6223C111.846 44.2615 112.276 44.7339 112.86 45.0396C113.471 45.3453 114.222 45.4981 115.111 45.4981C116.111 45.4981 116.945 45.3314 117.612 44.9979C118.307 44.6367 118.862 44.1226 119.279 43.4556C119.564 43.0286 119.792 42.556 119.962 42.0378C120.134 41.5166 120.594 41.1213 121.143 41.1213H124.362C125.063 41.1213 125.603 41.7507 125.429 42.4302C125.08 43.7899 124.545 44.9793 123.823 45.9983C122.878 47.3322 121.669 48.3326 120.196 48.9996C118.723 49.6665 117.014 50 115.069 50Z" fill="white"/>
<path d="M83.0133 49.4998C82.3049 49.4998 81.7679 48.8607 81.8899 48.1628L85.3259 28.518C85.4214 27.9722 85.8953 27.574 86.4493 27.574H89.1025C89.7324 27.574 90.243 28.0846 90.243 28.7145V30.4199C90.243 30.5287 90.3312 30.6169 90.4401 30.6169V30.6169C90.5 30.6169 90.5565 30.5896 90.5944 30.5433C91.1381 29.8789 91.7852 29.2921 92.5357 28.7828C93.3138 28.2271 94.1613 27.8102 95.0784 27.5323C95.9954 27.2266 96.9264 27.0738 97.8712 27.0738C99.1495 27.0738 100.261 27.2683 101.206 27.6574C102.179 28.0464 102.929 28.6578 103.457 29.4915C104.013 30.3252 104.291 31.4089 104.291 32.7428C104.291 33.2152 104.263 33.7154 104.207 34.2434C104.152 34.7437 104.068 35.2717 103.957 35.8274L101.706 48.5579C101.61 49.1027 101.136 49.4998 100.583 49.4998H97.1057C96.3962 49.4998 95.8589 48.8589 95.9827 48.1603L98.0797 36.3276C98.1352 35.9942 98.1769 35.6885 98.2047 35.4106C98.2603 35.1049 98.2881 34.8131 98.2881 34.5352C98.2881 33.8961 98.1769 33.382 97.9546 32.9929C97.7323 32.6039 97.4127 32.326 96.9959 32.1592C96.579 31.9647 96.0788 31.8675 95.4952 31.8675C94.8005 31.8675 94.1197 31.9925 93.4527 32.2426C92.8135 32.4927 92.23 32.8679 91.702 33.3681C91.174 33.8405 90.7154 34.4241 90.3264 35.1188C89.9651 35.8135 89.715 36.6055 89.5761 37.4948L87.6169 48.5582C87.5205 49.1029 87.0471 49.4998 86.4939 49.4998H83.0133Z" fill="white"/>
<path d="M73.9879 49.4997C73.2786 49.4997 72.7413 48.8591 72.8648 48.1607L76.3381 28.5158C76.4345 27.971 76.9079 27.5739 77.4612 27.5739H80.939C81.6483 27.5739 82.1855 28.2145 82.062 28.913L78.5887 48.5578C78.4924 49.1026 78.0189 49.4997 77.4656 49.4997H73.9879Z" fill="white"/>
<path d="M51.9454 49.5C51.2363 49.5 50.6991 48.8597 50.8223 48.1614L55.4637 21.8471C55.5599 21.3021 56.0334 20.9048 56.5869 20.9048H60.4831C61.1917 20.9048 61.7288 21.5442 61.6064 22.2422L57.9903 42.8687C57.8679 43.5667 58.405 44.2061 59.1137 44.2061H70.7402C71.4479 44.2061 71.9847 44.8439 71.8639 45.5413L71.342 48.5542C71.2473 49.1008 70.773 49.5 70.2183 49.5H51.9454Z" fill="white"/>
<ellipse cx="80.5452" cy="22.1447" rx="3.03947" ry="3.03946" fill="white"/>
</svg>
